<?xml version="1.0" encoding="UTF-8"?>
<!DOCTYPE svg PUBLIC "-//W3C//DTD SVG 1.1//EN" "http://www.w3.org/Graphics/SVG/1.1/DTD/svg11.dtd">
<!-- Creator: CorelDRAW -->
<svg xmlns="http://www.w3.org/2000/svg" xml:space="preserve" width="217.435mm" height="213.81mm" version="1.1" style="shape-rendering:geometricPrecision; text-rendering:geometricPrecision; image-rendering:optimizeQuality; fill-rule:evenodd; clip-rule:evenodd"
viewBox="0 0 2519.61 2477.61"
 xmlns:xlink="http://www.w3.org/1999/xlink"
 xmlns:xodm="http://www.corel.com/coreldraw/odm/2003">
 <defs>
  <style type="text/css">
   <![CDATA[
    .str0 {stroke:black;stroke-width:2.32;stroke-miterlimit:22.9256}
    .fil1 {fill:#86E10E}
    .fil0 {fill:#0B192C}
    .fil2 {fill:#122F38}
   ]]>
  </style>
 </defs>
 <g id="Layer_x0020_1">
  <metadata id="CorelCorpID_0Corel-Layer"/>
  <g id="_105553133968416">
   <rect class="fil0 str0" x="200.87" y="158.87" width="2317.58" height="2317.58" rx="270.64" ry="289.7"/>
   <rect class="fil1 str0" x="1.16" y="1.16" width="2317.58" height="2317.58" rx="270.64" ry="289.7"/>
   <rect class="fil2 str0" transform="matrix(3.53263E-014 -1 1.33384 2.64845E-014 825.031 1813.78)" width="255.85" height="920.17" rx="115.88" ry="115.88"/>
   <path class="fil2 str0" d="M1194.54 898.32c-34.16,100.21 -640.4,408.82 -764.25,480.33 -65.12,37.6 -149.17,15.08 -186.76,-50.04l-14.21 -24.62c-37.6,-65.12 -15.08,-149.17 50.04,-186.76l472.15 -272.6 -465.97 -269.03c-65.12,-37.6 -87.64,-121.64 -50.04,-186.76l14.21 -24.62c37.6,-65.12 121.64,-87.64 186.76,-50.04l703.41 406.11c62.25,35.94 85.57,114.31 54.66,178.04z"/>
  </g>
 </g>
</svg>
